<svg width="93" height="93" viewBox="0 0 93 93" fill="none" xmlns="http://www.w3.org/2000/svg">
<path d="M59.6464 46.2465L59.2929 46.6L59.6464 46.9536L69.3724 56.6795C67.7752 57.9422 65.5383 57.8312 64.0535 56.3465L56.8536 49.1464L56.5 48.7929L56.1464 49.1464L54.1464 51.1464L53.7929 51.5L54.1464 51.8536L64.1724 61.8795C62.5752 63.1422 60.3383 63.0312 58.8536 61.5465L51.6535 54.3465L51.3 53.9929L50.9464 54.3465L48.8464 56.4464L48.4929 56.8L48.8464 57.1536L58.8724 67.1795C57.2756 68.4419 55.0393 68.3312 53.5546 66.8475C53.5542 66.8471 53.5539 66.8468 53.5535 66.8465L46.356 59.5489L46.0024 59.1905L45.6464 59.5465L34.8205 70.3724C33.5578 68.7752 33.6688 66.5383 35.1535 65.0536L43.1535 57.0536L43.5071 56.7L43.1535 56.3465L41.1535 54.3465L40.8 53.9929L40.4464 54.3465L29.6205 65.1724C28.3578 63.5752 28.4688 61.3383 29.9536 59.8536L37.8536 51.9536L38.2071 51.6L37.8536 51.2465L35.8536 49.2465L35.5 48.8929L35.1464 49.2465L24.4205 59.9724C23.1578 58.3752 23.2688 56.1383 24.7535 54.6536L32.5535 46.8536L32.9071 46.5L32.5535 46.1464L22.7276 36.3205C24.3248 35.0578 26.5617 35.1688 28.0464 36.6536L35.2465 43.8536L35.6 44.2071L35.9536 43.8536L37.9536 41.8536L38.3071 41.5L37.9536 41.1464L27.9276 31.1205C29.5248 29.8578 31.7617 29.9688 33.2465 31.4536L40.4464 38.6536L40.8 39.0071L41.1535 38.6536L43.2535 36.5536L43.6071 36.2L43.2535 35.8465L33.2276 25.8205C34.8244 24.5581 37.0605 24.6688 38.5452 26.1523C38.5456 26.1527 38.546 26.1531 38.5464 26.1536L45.744 33.4511L46.0944 33.8064L46.4504 33.4567L57.3766 22.7239C58.6424 24.3213 58.5323 26.5606 57.0464 28.0465L49.0464 36.0465L48.6929 36.4L49.0464 36.7536L51.0464 38.7536L51.4 39.1071L51.7535 38.7536L62.5795 27.9276C63.8422 29.5248 63.7312 31.7617 62.2465 33.2465L54.3464 41.1464L53.9929 41.5L54.3464 41.8536L56.3464 43.8536L56.7 44.2071L57.0535 43.8536L67.7795 33.1276C69.0422 34.7248 68.9312 36.9617 67.4464 38.4464L59.6464 46.2465ZM46.4536 39.0465L46.1 38.6929L45.7465 39.0465L43.6464 41.1464L43.2929 41.5L43.6464 41.8536L45.6464 43.8536L46 44.2071L46.3536 43.8536L48.4536 41.7536L48.8071 41.4L48.4536 41.0465L46.4536 39.0465ZM40.4464 48.7536L40.79 49.0972L41.1433 48.7635L42.9433 47.0635L43.3074 46.7197L42.963 46.3561L41.163 44.4561L40.8097 44.0832L40.4464 44.4465L38.6464 46.2465L38.2929 46.6L38.6464 46.9536L40.4464 48.7536ZM45.7465 53.9536L46.1 54.3071L46.4536 53.9536L48.5535 51.8535L48.9071 51.5L48.5535 51.1464L46.5535 49.1464L46.2 48.7929L45.8464 49.1465L43.7465 51.2465L43.3929 51.6L43.7465 51.9536L45.7465 53.9536ZM49.2465 46.1464L48.8929 46.5L49.2465 46.8536L51.0464 48.6536L51.4 49.0071L51.7535 48.6536L53.5535 46.8536L53.9071 46.5L53.5535 46.1464L51.7535 44.3465L51.4 43.9929L51.0464 44.3465L49.2465 46.1464Z" fill="#3E65CA" stroke="black"/>
</svg>
