<svg width="20" height="20" viewBox="0 0 20 20" fill="none" xmlns="http://www.w3.org/2000/svg">
<path d="M17.071 2.92888C15.1823 1.04019 12.671 -7.62939e-06 9.99998 -7.62939e-06C7.32888 -7.62939e-06 4.81768 1.04014 2.92894 2.92888C1.04019 4.81768 0 7.32892 0 9.99997C0 12.6711 1.04019 15.1824 2.92899 17.0711C4.81773 18.9598 7.32893 20 10 20C12.6711 20 15.1823 18.9598 17.0711 17.0711C18.9599 15.1824 20.0001 12.6711 20.0001 9.99997C20 7.32892 18.9597 4.81768 17.071 2.92888ZM16.4282 3.57172C18.1453 5.2888 19.0909 7.57175 19.0909 9.99997H17.0303C17.0303 6.12343 13.8766 2.96964 10 2.96964C9.77002 2.96964 9.54262 2.98111 9.31823 3.00279V0.934124C9.54398 0.917498 9.77138 0.909086 10 0.909086C12.4282 0.909086 14.7111 1.85468 16.4282 3.57172ZM9.99998 16.1212C6.62475 16.1212 3.87879 13.3752 3.87879 10C3.87879 6.62479 6.62475 3.87879 9.99998 3.87879C13.3752 3.87879 16.1212 6.62474 16.1212 9.99997C16.1212 13.3752 13.3752 16.1212 9.99998 16.1212Z" fill="url(#paint0_linear)"/>
<defs>
<linearGradient id="paint0_linear" x1="0" y1="-7.62939e-06" x2="21.3152" y2="1.64216" gradientUnits="userSpaceOnUse">
<stop offset="0.0470752" stop-color="#2929CC"/>
<stop offset="0.787948" stop-color="#4242B8"/>
</linearGradient>
</defs>
</svg>
